<svg width="254" height="223" viewBox="0 0 254 223" fill="none" xmlns="http://www.w3.org/2000/svg">
<path d="M58.5953 184.117L55.257 189.26L60.8117 195.128L66.1024 192.047L70.7772 196.986L44.8993 209.971L39.427 204.19L53.8105 179.063L58.5953 184.117ZM56.585 197.587L52.5702 193.346L45.6887 203.881L56.585 197.587Z" fill="black"/>
<path d="M30.8725 166.361C30.4038 164.548 30.3843 162.907 30.8139 161.439C31.2321 159.946 32.3584 158.768 34.1927 157.907C36.8718 156.648 39.22 156.723 41.2374 158.133C43.2193 159.529 45.021 161.953 46.6425 165.404L50.4354 173.478L25.3463 185.265L22.0126 178.169C20.3571 174.645 19.5996 171.716 19.7402 169.381C19.8567 167.058 21.0493 165.363 23.318 164.297C24.7903 163.606 26.1948 163.491 27.5315 163.953C28.8327 164.402 29.9464 165.205 30.8725 166.361ZM26.7565 177.354L32.5853 174.616L31.5478 172.408C30.3685 169.897 28.7652 169.119 26.7377 170.071C25.724 170.547 25.1708 171.22 25.078 172.088C24.961 172.968 25.2484 174.144 25.9401 175.617L26.7565 177.354ZM42.3172 167.392C41.5802 165.823 40.7953 164.748 39.9625 164.167C39.0943 163.574 38.0206 163.577 36.7414 164.178C34.4243 165.267 33.9462 167.259 35.3069 170.155L36.5315 172.762L43.3378 169.564L42.3172 167.392Z" fill="black"/>
<path d="M9.95875 138.407C9.56945 134.48 10.5274 131.303 12.8327 128.877C15.1354 126.425 18.5821 124.971 23.173 124.516C26.1716 124.219 28.8089 124.467 31.0849 125.259C33.3582 126.026 35.172 127.293 36.5264 129.061C37.8516 130.806 38.6418 132.965 38.8969 135.539C39.1521 138.113 38.8012 140.385 37.8442 142.356C36.8873 144.327 35.3841 145.923 33.3345 147.144C31.2559 148.342 28.6907 149.092 25.639 149.394C22.6669 149.689 20.0441 149.453 17.7708 148.687C15.4949 147.894 13.6943 146.626 12.3691 144.881C11.0173 143.139 10.2139 140.981 9.95875 138.407ZM14.7353 137.934C14.9221 139.818 15.8311 141.148 17.4623 141.924C19.0643 142.677 21.5636 142.885 24.9603 142.548C28.357 142.211 30.7789 141.502 32.2259 140.421C33.673 139.339 34.3045 137.87 34.1203 136.012C33.931 134.102 33.0352 132.77 31.4332 132.018C29.802 131.242 27.2748 131.023 23.8516 131.363C20.4284 131.702 18.0065 132.411 16.586 133.49C15.1655 134.568 14.5486 136.05 14.7353 137.934Z" fill="black"/>
<path d="M34.2641 92.0437C36.0974 92.5165 37.6338 93.3396 38.8734 94.513C40.1196 95.6606 40.9528 97.1285 41.3728 98.9168C41.7929 100.705 41.7099 102.735 41.1238 105.008C40.2448 108.416 38.7104 110.788 36.5209 112.124C34.3313 113.459 31.7776 113.751 28.8597 112.998L10.9266 108.373L12.5648 102.021L30.2269 106.576C31.9569 107.022 33.3313 107.032 34.3499 106.607C35.3493 106.148 36.0322 105.209 36.3985 103.789C36.7714 102.343 36.628 101.191 35.9682 100.332C35.2892 99.4407 34.0847 98.7721 32.3546 98.3259L14.6926 93.7707L16.3309 87.4185L34.2641 92.0437Z" fill="black"/>
<path d="M34.3057 54.553L38.1996 57.8162L34.5016 63.5704L53.5813 75.8321L50.0347 81.3508L30.955 69.089L27.084 75.1124L22.8441 72.3876L34.3057 54.553Z" fill="black"/>
<path d="M75.2758 21.2496L77.3447 25.8897L71.4982 29.44L83.27 48.8257L77.6629 52.2306L65.8911 32.8449L59.7711 36.5612L57.1551 32.2532L75.2758 21.2496Z" fill="black"/>
<path d="M110.726 38.8672L108.053 27.2918L99.9462 29.1637L102.619 40.7391L96.2273 42.2151L89.9905 15.2058L96.3824 13.7298L98.7943 24.175L106.901 22.3031L104.489 11.8579L110.881 10.382L117.118 37.3912L110.726 38.8672Z" fill="black"/>
<path d="M146.186 11.0387L145.079 15.6366L135.36 14.7414L134.751 21.3534L143.235 22.1349L142.814 26.7155L134.329 25.934L133.68 32.9841L144.076 33.9417L143.643 38.6418L126.715 37.0825L129.257 9.47936L146.186 11.0387Z" fill="black"/>
<path d="M188.259 27.1595C191.361 29.0893 193.371 31.2349 194.289 33.5961C195.207 35.9573 194.877 38.4058 193.299 40.9418C191.651 43.591 189.555 45.0666 187.012 45.3686C184.505 45.6621 181.837 44.9285 179.006 43.1677L176.459 41.5829L171.578 49.4285L166.008 45.9632L180.651 22.4264L188.259 27.1595ZM181.024 38.8641C182.337 39.6811 183.524 39.9953 184.583 39.8065C185.68 39.6092 186.672 38.7973 187.559 37.3709C189.095 34.9028 188.481 32.8095 185.719 31.091L183.749 29.8654L178.952 37.5752L181.024 38.8641Z" fill="black"/>
<path d="M202.977 62.1091L201.336 60.1436L193.198 66.9356L188.995 61.8991L210.277 44.1376L216.095 51.1087C218.521 54.0159 219.809 56.6406 219.957 58.9827C220.123 61.3453 219.11 63.4407 216.92 65.269C215.548 66.4138 214.128 67.0431 212.66 67.1568C211.212 67.2535 209.582 66.8604 207.768 65.9774L203.22 78.9432L198.478 73.2618L202.977 62.1091ZM204.807 57.2474L206.575 59.3664C207.515 60.4925 208.471 61.1183 209.444 61.2439C210.435 61.39 211.483 61.0017 212.588 60.079C213.612 59.2247 214.103 58.2939 214.061 57.2867C214.037 56.3 213.503 55.1822 212.461 53.9333L210.949 52.1214L204.807 57.2474Z" fill="black"/>
<path d="M237.039 85.5644C238.411 89.2649 238.29 92.5806 236.675 95.5116C235.069 98.4676 232.103 100.748 227.778 102.351C224.952 103.399 222.338 103.828 219.936 103.638C217.542 103.473 215.467 102.707 213.708 101.34C211.984 99.988 210.672 98.0996 209.773 95.6743C208.874 93.2489 208.637 90.9618 209.063 88.813C209.49 86.6641 210.539 84.7391 212.212 83.0381C213.919 81.3527 216.211 79.977 219.086 78.9109C221.887 77.8725 224.483 77.4358 226.877 77.6007C229.279 77.7906 231.343 78.5614 233.067 79.913C234.816 81.2553 236.14 83.1391 237.039 85.5644ZM232.539 87.2332C231.88 85.4579 230.664 84.4016 228.889 84.0642C227.149 83.7425 224.678 84.175 221.478 85.3617C218.278 86.5484 216.115 87.8481 214.989 89.2609C213.863 90.6738 213.625 92.2553 214.274 94.0055C214.941 95.8057 216.145 96.8667 217.886 97.1884C219.66 97.5258 222.16 97.0965 225.386 95.9006C228.611 94.7046 230.774 93.4049 231.875 92.0013C232.976 90.5978 233.197 89.0084 232.539 87.2332Z" fill="black"/>
<path d="M220.243 122.93C218.036 123.105 216.184 122.852 214.685 122.169C213.188 121.512 211.989 120.564 211.087 119.325C210.162 118.115 209.336 116.643 208.609 114.908L213.094 112.785C213.639 113.919 214.228 114.755 214.859 115.293C215.491 115.831 216.199 116.163 216.985 116.287C217.773 116.439 218.765 116.467 219.961 116.371L243.167 114.522L243.688 121.062L220.243 122.93Z" fill="black"/>
<path d="M240.798 154.137L236.292 152.704L237.882 143.074L231.33 141.992L229.942 150.398L225.404 149.649L226.792 141.243L219.806 140.089L218.106 150.39L213.449 149.621L216.218 132.848L243.568 137.364L240.798 154.137Z" fill="black"/>
<path d="M231.033 181.164C230.254 182.712 229.338 183.968 228.286 184.932C227.222 185.919 225.968 186.72 224.524 187.337L222.603 182.878C223.546 182.427 224.341 181.916 224.986 181.345C225.632 180.775 226.158 180.084 226.566 179.274C227.405 177.607 227.367 175.931 226.453 174.247C225.528 172.587 223.6 171.02 220.67 169.546C217.787 168.095 215.404 167.493 213.519 167.738C211.646 168.02 210.278 169.018 209.415 170.733C208.959 171.638 208.712 172.544 208.674 173.45C208.66 174.369 208.759 175.418 208.97 176.599L204.299 177.518C203.837 176.121 203.645 174.606 203.72 172.972C203.784 171.363 204.218 169.76 205.021 168.164C206.171 165.877 207.673 164.14 209.524 162.952C211.376 161.764 213.518 161.185 215.951 161.215C218.395 161.281 220.999 162.009 223.762 163.4C226.454 164.754 228.537 166.4 230.011 168.335C231.472 170.295 232.278 172.372 232.427 174.567C232.589 176.797 232.124 178.996 231.033 181.164Z" fill="black"/>
<path d="M203.552 215.452L200.374 211.488L205.13 206.572L188.829 190.803L193.39 186.088L209.691 201.857L214.669 196.711L218.291 200.215L203.552 215.452Z" fill="black"/>
</svg>
